<svg xmlns="http://www.w3.org/2000/svg" xmlns:xlink="http://www.w3.org/1999/xlink" xmlns:inkscape="http://www.inkscape.org/namespaces/inkscape" version="1.1" width="810" height="255" viewBox="0 0 810 255">
<g>
<path d="M782.168 89.496 699.809 78 610.828 89.496V229.695H782.168ZM782.168 89.496" fill="#ffffff"/>
<path d="M25.754 174.121C27.254 171.668 30.352 170.723 32.953 171.93 42.602 176.398 66.562 186.09 93.219 186.09 125.281 186.09 162.066 179.176 181.922 146.168 185.062 140.941 190.598 137.617 196.703 137.617H559.379C569.031 137.617 576.863 145.441 576.863 155.102V214.066C576.863 223.719 569.039 231.547 559.379 231.547H178.793C124.68 231.547 59.273 231.316 25.883 180.262 24.668 178.402 24.594 176.016 25.754 174.129ZM25.754 174.121" fill="#f15e1a"/>
<path d="M639.227 134.039C638.07 134.039 637.125 134.977 637.125 136.141 637.125 137.301 638.062 138.238 639.227 138.238 640.387 138.238 641.324 137.301 641.324 136.141 641.324 134.977 640.387 134.039 639.227 134.039ZM639.227 134.039" fill="#f15e1a"/>
<path d="M794.031 90.547 707.699 27.227C700.836 22.191 691.598 22.191 684.734 27.227L598.402 90.547C593.242 94.328 590.184 100.426 590.184 106.914V209.535C590.184 220.656 599.004 229.68 609.887 229.68H688.074L692.949 109.914C690.555 106.059 686.781 100.5 681.871 101.094 671.941 102.285 663.082 118.395 661.305 111.668 668.664 98.52 682.852 86.559 699.098 87.914 709.664 88.801 710.715 98.512 713.664 96.324 714.211 95.918 714.691 94.711 714.758 93.914L715.312 87.414C719.234 87.016 722.504 87.047 726.328 87.898L725.836 113.16C725.055 115.254 717.074 114.773 715.637 113.387 713.273 111.105 715.762 107.348 713.578 105.848 712.957 105.422 710.879 105.434 710.387 106.035L706.352 110.953 710.871 229.695H782.559C793.441 229.695 802.262 220.672 802.262 209.551V106.926C802.262 100.434 799.199 94.344 794.039 90.562V90.547ZM663.164 185.684C667.172 197.324 664.988 210.219 659.504 221.504 647.578 213.824 656.676 206.281 653.879 190.598 652.484 182.781 650.176 174.359 647.609 166.914 646.102 166.395 642.367 165.816 642.137 164.484 640.508 155.199 641.266 150.727 639.227 143.324 637.184 150.727 637.941 155.199 636.316 164.484 636.082 165.809 632.348 166.395 630.84 166.914 628.273 174.359 625.965 182.781 624.57 190.598 621.773 206.289 630.871 213.824 618.945 221.504 613.461 210.219 611.281 197.332 615.285 185.684L622.004 166.164C623.762 161.07 623.469 156.047 621.555 150.996 619.641 145.949 628.125 148.711 629.332 142.531L631.508 131.422C627.238 125.797 627.105 119.461 628.352 112.875 628.828 110.332 632.109 93.914 635.961 96.406 636.352 96.652 637.074 97.762 637.102 98.258L637.77 110.227C635.266 112.051 633.398 113.445 633.008 115.801 632.145 120.977 636.766 121.395 639.234 125.16 641.699 121.387 646.32 120.977 645.457 115.801 645.066 113.445 643.191 112.051 640.695 110.227L641.363 98.258C641.391 97.77 642.113 96.66 642.504 96.406 646.359 93.922 649.637 110.332 650.113 112.875 651.359 119.461 651.227 125.797 646.957 131.422L649.133 142.531C650.348 148.711 658.824 145.941 656.91 150.996 654.996 156.051 654.711 161.07 656.461 166.164L663.18 185.684ZM781.215 146.25C770.332 150.594 762.324 157.461 763.352 169.648 763.59 172.492 765.211 184.297 767.086 188.934 776.543 211.484 757.785 210.031 757.785 210.031 749.422 209.184 747.961 205.109 747.961 205.109 747.031 201.766 747.18 198.57 748.172 195.164 750.27 187.941 752.309 180.996 753.816 173.617 756.66 159.645 751.164 151.41 737.664 145.613 737.227 142.164 737.25 138.891 737.789 134.559L781.379 135.406C781.566 139.703 781.484 142.844 781.215 146.242ZM781.5 133.078 738.18 132.27 737.586 123.098C737.355 119.445 736.02 116.062 733.914 113.504L764.152 114.09 766.238 116.648C767.086 113.219 772.281 114.074 773.504 114.652 774.18 114.977 774.66 116.496 775.184 117.57 775.582 116.379 776.676 114.719 777.797 114.328 778.852 113.961 781.996 114.906 781.965 116.16L781.508 133.074H781.5ZM781.5 133.078" fill="#f15e1a"/>
<path d="M187.664 125.477H300.164V97.184H221.438V88.004H295.176V60.84H221.438V51.816H300.164V23.527H187.664ZM187.664 125.477" fill="#ffffff"/>
<path d="M403.949 83.895 354.855 23.453H307.777V125.477H341.551V64.012L391.516 125.477V125.469H437.723V23.453H403.949ZM403.949 83.895" fill="#ffffff"/>
<path d="M508.785 62.234C483.172 60.141 481.352 60.016 481.109 57.328 481.109 53.566 482.398 52.328 509.094 52.328 535.785 52.328 537.863 55.32 537.863 60.684H573.898C573.898 31.199 561.555 23.766 508.238 23.766 463.305 23.766 445.762 26.844 445.762 57 445.762 83.219 466.836 85.254 508.23 88.656 534.914 90.855 537.922 90.234 537.922 93.504 537.922 98.168 535.207 97.922 510.742 97.922 484.719 97.922 482.168 96.531 482.168 90.465H447.172C447.172 120.156 455.414 125.477 509.219 125.477 567.645 125.477 577.461 120.074 577.461 93.855 577.461 67.637 565.359 66.855 508.785 62.234ZM508.785 62.234" fill="#ffffff"/>
<path d="M68.609 73.191H128.961V111.516C128.961 111.516 127.875 132.234 92.191 132.234 56.504 132.234 56.504 104.949 56.504 104.949H7.754C7.754 104.949 9.246 173.707 93.758 173.707 178.262 173.707 178.695 111.344 178.695 111.344V23.453H68.609ZM68.609 73.191" fill="#ffffff"/>
<path d="M214.156 212.047C205.156 212.047 198.398 206.672 196.867 198.758 196.078 195.434 197.836 193.453 201.129 193.453H201.426C204.391 193.453 205.484 194.797 206.297 196.672 207.449 200.176 210.105 202.379 214.461 202.379 218.574 202.379 221.594 200.211 221.594 196.336 221.594 191.961 217.172 190.836 212.113 189.523 205.305 187.727 197.258 185.559 197.258 174.832 197.258 165.277 203.828 159.375 214.281 159.375 222.797 159.375 229.102 164.078 230.895 172.109 231.758 175.281 230.07 177.414 226.68 177.414H226.379C223.816 177.414 222.699 176.137 221.836 174.375 220.637 171.227 218.109 169.012 214.133 169.012 210.156 169.012 207.449 171.219 207.449 174.84 207.449 179.34 211.914 180.414 217.012 181.648 223.852 183.324 231.906 185.309 231.906 196.086 231.906 205.941 224.926 212.07 214.172 212.07ZM214.156 212.047" fill="#ffffff"/>
<path d="M243.727 193.867V177.621C243.727 166.867 250.934 159.367 261.352 159.367 271.77 159.367 278.977 166.875 278.977 177.621V193.867C278.977 204.586 271.656 212.047 261.352 212.047 251.047 212.047 243.727 204.578 243.727 193.867ZM268.629 194.242V177.254C268.629 171.352 265.23 169.23 261.344 169.23 257.723 169.23 254.023 171.137 254.023 177.219V194.203C254.023 200.07 257.535 202.191 261.344 202.191 264.855 202.191 268.629 200.289 268.629 194.242ZM268.629 194.242" fill="#ffffff"/>
<path d="M298.086 212.047C295.066 212.047 293.422 210.406 293.422 207.383V164.031C293.422 161.012 295.066 159.367 298.086 159.367H299.055C302.078 159.367 303.719 161.012 303.719 164.031V202.156H316.453C319.477 202.156 321.121 203.797 321.121 206.82V207.383C321.121 210.406 319.477 212.047 316.453 212.047ZM298.086 212.047" fill="#ffffff"/>
<path d="M331.809 193.867V164.031C331.809 161.012 333.449 159.367 336.473 159.367H337.402C340.426 159.367 342.066 161.012 342.066 164.031V194.199C342.066 200.281 345.84 202.184 349.387 202.184 353.16 202.184 356.707 200.055 356.707 194.199V164.031C356.707 161.012 358.352 159.367 361.371 159.367H362.34C365.363 159.367 367.004 161.012 367.004 164.031V193.867C367.004 204.586 359.684 212.047 349.379 212.047 339.074 212.047 331.793 204.578 331.793 193.867ZM331.809 193.867" fill="#ffffff"/>
<path d="M411.188 191.477C414.398 191.477 415.777 193.531 415.516 196.59 414.809 204.488 409.656 210.684 401.234 211.852 401.16 212.301 401.062 212.797 400.949 213.328L399.195 220.012C398.633 222.773 396.914 224.16 394.078 224.16 390.457 224.16 389.113 222.18 390.832 218.594L394.32 211.656C386.094 209.992 380.676 203.109 380.676 193.793V177.547C380.676 166.828 387.887 159.367 398.301 159.367 408.719 159.367 414.727 165.977 415.516 174.602 415.777 177.66 414.285 179.34 411.227 179.34H410.219C406.777 179.34 405.988 177.699 405.562 175.656 404.859 172.191 403.172 169.262 398.309 169.262 394.801 169.262 390.988 171.164 390.988 177.211V194.121C390.988 200.023 394.387 202.148 398.309 202.148 403.41 202.148 405.09 198.863 405.645 195.375 406.035 193.207 406.793 191.469 410.219 191.469H411.188ZM411.188 191.477" fill="#ffffff"/>
<path d="M427.949 193.867V177.621C427.949 166.867 435.156 159.367 445.574 159.367 455.992 159.367 463.199 166.875 463.199 177.621V193.867C463.199 204.586 455.879 212.047 445.574 212.047 435.27 212.047 427.949 204.578 427.949 193.867ZM440.535 154.102C437.25 154.852 434.527 155.484 433.289 153.172 431.723 150.262 435.422 147.684 438.816 147.195 443.145 146.52 446.953 149.512 450.652 148.648 454.012 147.863 456.406 146.781 457.672 149.398 459.051 152.309 455.766 154.891 452.332 155.301 447.855 155.977 444.27 153.172 440.535 154.109ZM452.852 194.242V177.254C452.852 171.352 449.453 169.23 445.566 169.23 441.945 169.23 438.246 171.137 438.246 177.219V194.203C438.246 200.07 441.758 202.191 445.566 202.191 449.078 202.191 452.852 200.289 452.852 194.242ZM452.852 194.242" fill="#ffffff"/>
<path d="M482.309 212.047C479.289 212.047 477.645 210.406 477.645 207.383V164.031C477.645 161.012 479.289 159.367 482.309 159.367H502.434C505.453 159.367 507.098 161.012 507.098 164.031V164.633C507.098 167.656 505.453 169.297 502.434 169.297H487.906V181.246H497.461C500.484 181.246 502.125 182.812 502.125 185.723 502.125 188.633 500.484 190.238 497.461 190.238H487.906V202.148H502.434C505.453 202.148 507.098 203.789 507.098 206.812V207.375C507.098 210.398 505.453 212.039 502.434 212.039H482.309ZM482.309 212.047" fill="#ffffff"/>
<path d="M534.809 212.047C525.809 212.047 519.051 206.672 517.523 198.758 516.742 195.434 518.488 193.453 521.773 193.453H522.074C525.039 193.453 526.133 194.797 526.941 196.672 528.098 200.176 530.754 202.379 535.109 202.379 539.219 202.379 542.242 200.211 542.242 196.336 542.242 191.961 537.816 190.836 532.762 189.523 525.953 187.727 517.906 185.559 517.906 174.832 517.906 165.277 524.477 159.375 534.93 159.375 543.441 159.375 549.75 164.078 551.543 172.109 552.398 175.281 550.719 177.414 547.32 177.414H547.02C544.453 177.414 543.336 176.137 542.484 174.375 541.281 171.227 538.754 169.012 534.781 169.012 530.805 169.012 528.098 171.219 528.098 174.84 528.098 179.34 532.559 180.414 537.66 181.648 544.5 183.324 552.555 185.309 552.555 196.086 552.555 205.941 545.574 212.07 534.816 212.07V212.047ZM534.809 212.047" fill="#ffffff"/>
</g>
</svg>
